<svg viewBox="0 0 1024 1024" xmlns="http://www.w3.org/2000/svg">
  <path d="M0 0 C5 3 9 7 14 10 C14 10 14 10 16 11 C32 23 47 36 61 50 C63 50 63 50 66 49 C67 49 68 49 69 49 C70 48 71 48 72 48 C73 48 74 48 75 47 C77 47 79 47 81 46 C100 42 120 40 140 39 C141 39 142 39 144 39 C172 38 201 41 228 49 C235 51 235 51 239 49 C241 48 241 48 242 46 C244 44 244 44 245 43 C246 43 246 43 247 43 C247 42 247 42 247 41 C249 40 250 38 252 37 C256 34 259 31 262 28 C268 23 274 18 280 14 C281 13 281 13 282 12 C312 -10 351 -38 390 -34 C402 -32 412 -25 419 -15 C432 6 437 31 439 56 C439 56 439 56 439 59 C440 70 440 81 440 92 C440 92 440 92 440 95 C440 110 440 125 438 140 C438 141 438 141 438 143 C436 157 433 170 430 183 C427 193 426 199 431 209 C441 233 446 259 446 285 C447 285 447 285 450 284 C466 277 482 273 499 280 C508 283 515 288 521 295 C522 295 523 296 523 297 C532 305 541 314 550 323 C553 325 555 328 558 330 C560 332 562 334 564 336 C565 338 566 339 568 341 C583 356 595 372 595 395 C595 418 580 432 565 447 C563 448 562 449 561 450 C558 453 555 456 552 459 C549 462 546 465 543 468 C537 474 531 480 525 486 C518 493 511 500 505 506 C491 520 477 534 463 548 C463 548 464 549 464 549 C465 550 465 551 466 551 C466 552 467 553 467 553 C480 568 484 584 483 603 C481 623 471 641 457 656 C456 657 456 657 455 658 C443 670 427 676 411 675 C395 675 382 669 371 657 C368 654 365 651 363 647 C358 649 356 652 353 656 C351 658 348 661 346 663 C345 664 344 665 343 666 C333 676 324 685 315 694 C316 698 318 701 320 704 C324 710 327 716 329 722 C329 723 330 724 330 725 C336 747 332 772 321 792 C309 814 288 828 264 835 C251 838 239 839 226 839 C225 839 224 839 222 839 C219 839 216 839 213 839 C209 839 205 839 202 839 C199 839 196 839 193 839 C191 839 190 839 189 839 C175 839 175 839 169 836 C167 834 167 834 167 832 C166 831 166 831 166 830 C165 828 165 828 165 825 C145 831 125 837 105 843 C101 844 98 845 94 846 C89 848 83 850 77 851 C66 855 55 858 43 862 C40 863 37 864 34 865 C30 866 26 867 22 868 C19 869 15 871 11 872 C10 872 8 873 6 873 C5 874 4 874 4 874 C-2 876 -8 877 -14 874 C-19 872 -22 869 -24 864 C-26 853 -21 844 -17 834 C-18 834 -18 834 -19 834 C-36 831 -55 821 -68 811 C-69 810 -69 810 -70 809 C-73 807 -76 804 -78 801 C-82 796 -85 792 -92 790 C-100 790 -107 790 -114 791 C-156 793 -199 771 -229 744 C-245 729 -256 713 -266 694 C-267 693 -267 692 -268 691 C-276 674 -282 655 -284 636 C-284 635 -284 635 -284 634 C-290 589 -283 540 -255 504 C-248 495 -240 488 -230 482 C-229 482 -229 481 -228 481 C-213 473 -198 472 -182 477 C-167 481 -156 492 -149 505 C-143 519 -142 535 -147 550 C-150 558 -154 566 -159 573 C-170 594 -174 615 -168 638 C-163 654 -153 668 -138 676 C-135 678 -132 680 -128 681 C-128 680 -128 679 -128 678 C-125 600 -104 523 -55 460 C-55 460 -54 459 -53 458 C-53 458 -53 457 -52 457 C-51 455 -51 455 -51 453 C-53 451 -56 450 -58 449 C-70 441 -81 432 -91 422 C-93 421 -94 420 -95 420 C-105 409 -115 398 -122 385 C-132 386 -141 390 -151 394 C-158 396 -163 398 -170 396 C-174 394 -177 391 -178 387 C-178 382 -178 380 -176 376 C-170 369 -162 366 -153 364 C-151 363 -149 362 -147 362 C-146 361 -145 361 -144 361 C-141 360 -139 359 -136 358 C-136 357 -137 356 -137 355 C-140 346 -143 337 -145 328 C-146 322 -146 322 -147 321 C-149 321 -150 321 -152 321 C-152 321 -152 321 -155 322 C-156 322 -157 322 -158 322 C-185 324 -185 324 -190 320 C-194 315 -195 311 -194 305 C-192 300 -190 298 -186 295 C-183 294 -181 294 -178 293 C-177 293 -177 293 -176 293 C-166 292 -157 291 -148 291 C-148 290 -148 289 -148 288 C-149 260 -144 226 -130 201 C-128 194 -131 186 -133 180 C-135 171 -137 162 -138 153 C-138 152 -138 152 -139 150 C-142 130 -142 111 -142 91 C-142 90 -142 88 -142 87 C-142 70 -142 54 -139 37 C-139 37 -139 37 -138 34 C-134 12 -128 -12 -110 -27 C-76 -49 -28 -19 0 0 Z " transform="translate(364,94)" style="fill: #1C1817;"/>
  <path d="M0 0 C22 11 43 27 62 43 C62 43 62 43 64 44 C72 50 79 57 86 65 C87 65 87 66 88 67 C88 67 88 67 90 68 C92 71 95 72 98 72 C104 72 109 70 114 69 C122 67 130 65 139 63 C139 63 140 63 141 63 C157 60 173 59 190 59 C191 59 192 59 193 59 C210 59 226 60 243 64 C244 64 245 64 246 64 C256 66 265 68 275 71 C280 72 284 73 288 70 C294 66 298 62 303 57 C306 54 310 51 313 48 C314 47 315 46 316 46 C318 43 321 41 324 39 C325 38 325 38 326 37 C392 -16 392 -16 425 -15 C431 -14 434 -11 438 -7 C466 37 456 113 446 161 C444 167 443 174 441 180 C438 188 439 194 442 201 C454 226 460 254 459 283 C458 283 458 283 457 283 C442 284 428 286 413 288 C412 288 411 288 409 288 C392 291 392 291 386 297 C385 301 385 304 385 309 C388 314 388 314 391 316 C401 317 409 315 419 313 C430 311 441 310 452 310 C451 311 449 313 448 314 C447 316 445 318 444 319 C430 337 430 337 422 338 C415 338 408 337 402 335 C397 334 393 334 389 336 C385 340 384 341 384 346 C384 350 385 352 387 356 C392 358 396 360 401 361 C400 364 398 366 395 369 C395 370 394 370 393 371 C392 372 391 373 390 374 C389 375 388 376 387 377 C385 379 382 382 380 384 C377 387 374 390 372 392 C367 397 363 401 358 406 C353 411 348 416 342 422 C337 427 331 433 326 438 C324 440 323 441 321 443 C318 446 316 448 313 451 C312 452 311 453 309 455 C306 458 302 462 298 465 C293 470 288 475 283 480 C282 481 281 482 280 483 C277 486 274 489 271 492 C268 495 265 498 262 501 C256 507 250 512 245 518 C238 525 231 531 225 538 C211 551 198 565 184 579 C182 577 179 576 177 575 C176 574 175 574 174 574 C169 571 163 568 157 564 C156 564 156 563 155 562 C148 559 143 554 137 550 C136 549 136 548 135 548 C129 543 125 538 121 533 C118 530 116 526 112 525 C108 524 106 524 102 526 C98 530 96 532 96 537 C96 550 110 560 118 568 C131 580 147 589 162 597 C193 616 193 616 198 633 C198 636 198 639 198 642 C194 640 194 640 192 639 C189 637 185 637 181 638 C178 640 178 640 176 643 C176 647 176 649 178 654 C180 657 183 659 186 662 C187 664 187 664 187 666 C186 668 185 669 182 671 C182 672 181 673 180 673 C178 675 177 675 174 676 C174 675 174 675 173 673 C173 673 173 673 171 670 C171 669 170 668 170 667 C168 664 167 662 164 661 C160 660 156 660 152 662 C149 666 149 669 150 674 C151 677 153 679 154 682 C138 683 124 675 110 668 C107 667 105 666 102 664 C75 651 49 635 30 612 C27 608 25 607 20 606 C15 607 12 608 8 612 C7 616 6 619 7 624 C20 651 54 668 79 682 C73 699 66 717 60 734 C56 743 53 751 50 760 C50 760 49 761 49 762 C47 767 46 771 44 775 C41 783 38 791 35 799 C10 795 -15 779 -31 759 C-49 735 -57 703 -57 673 C-57 672 -57 672 -57 670 C-57 667 -57 664 -57 661 C-57 660 -57 658 -57 657 C-57 642 -57 628 -54 613 C-54 612 -54 612 -53 610 C-48 577 -37 546 -22 516 C-21 515 -20 513 -19 511 C-11 495 -1 480 10 467 C11 466 11 466 12 464 C13 463 13 463 14 462 C14 461 15 460 15 460 C17 459 17 459 20 459 C23 460 27 461 30 462 C32 463 33 463 35 464 C35 464 36 464 37 464 C51 469 65 473 79 476 C80 476 81 477 81 477 C107 482 107 482 116 479 C119 477 120 476 121 473 C122 467 122 464 119 459 C116 455 111 455 106 454 C104 454 102 453 99 453 C98 453 97 453 96 452 C58 445 20 433 -11 410 C-11 409 -12 409 -13 408 C-24 400 -36 390 -45 379 C-46 378 -46 377 -47 376 C-53 369 -53 369 -53 367 C-50 366 -47 365 -45 365 C-42 364 -40 364 -37 363 C-32 362 -27 361 -21 360 C-21 359 -21 359 -18 359 C-17 359 -15 359 -14 358 C-10 358 -8 357 -5 354 C-3 350 -3 347 -4 343 C-6 339 -8 336 -12 335 C-19 334 -26 335 -33 336 C-34 337 -35 337 -37 337 C-47 339 -57 341 -67 343 C-76 322 -76 322 -76 311 C-61 310 -45 312 -30 315 C-14 317 -14 317 -9 315 C-6 312 -5 309 -5 305 C-5 301 -5 299 -8 296 C-8 295 -9 295 -9 294 C-12 292 -15 291 -19 291 C-19 290 -20 290 -21 290 C-40 286 -59 285 -79 283 C-79 270 -78 258 -76 246 C-76 245 -76 245 -75 243 C-72 227 -67 210 -60 195 C-58 188 -59 182 -61 175 C-77 125 -84 47 -60 -2 C-46 -26 -19 -9 0 0 Z " transform="translate(322.796875,103.36669921875)" style="fill: #FAAA4E;"/>
  <path d="M0 0 C4 2 6 4 9 7 C9 7 10 7 10 8 C12 9 13 11 15 12 C16 14 17 15 18 16 C21 18 23 21 26 24 C29 27 32 30 34 32 C40 38 46 43 51 49 C45 56 39 62 33 69 C32 70 31 72 29 73 C19 85 19 85 11 86 C8 86 5 86 1 85 C-11 84 -24 92 -33 99 C-47 110 -59 130 -61 148 C-61 148 -61 148 -61 151 C-60 157 -62 162 -66 167 C-70 170 -73 174 -76 177 C-78 178 -79 180 -81 182 C-85 186 -89 190 -94 194 C-98 198 -102 203 -107 207 C-114 214 -121 222 -129 229 C-137 237 -146 246 -154 254 C-162 263 -171 271 -179 279 C-182 282 -186 286 -189 289 C-193 293 -197 297 -202 302 C-203 303 -205 305 -206 306 C-208 308 -210 310 -212 312 C-213 313 -213 313 -214 314 C-217 317 -218 318 -223 318 C-226 318 -229 317 -232 316 C-233 315 -234 315 -236 314 C-237 314 -238 313 -239 313 C-240 312 -241 312 -243 311 C-268 301 -268 301 -273 294 C-276 288 -276 282 -274 276 C-268 265 -258 257 -250 249 C-249 248 -248 247 -247 245 C-245 244 -243 242 -241 240 C-239 238 -237 236 -235 234 C-233 232 -233 232 -230 231 C-230 230 -229 230 -229 229 C-228 226 -225 224 -223 222 C-222 221 -222 220 -221 220 C-219 218 -219 218 -217 218 C-217 217 -216 216 -216 215 C-214 213 -214 213 -212 212 C-208 208 -203 204 -199 199 C-198 198 -197 198 -197 197 C-194 194 -192 192 -189 190 C-187 187 -184 185 -182 182 C-177 178 -173 173 -169 169 C-162 162 -156 156 -150 150 C-139 139 -129 129 -119 119 C-108 109 -98 99 -88 88 C-88 88 -87 87 -87 87 C-83 83 -80 80 -77 77 C-51 52 -26 26 0 0 Z " transform="translate(784,543)" style="fill: #FED748;"/>
  <path d="M0 0 C7 4 12 10 14 17 C17 30 10 42 4 52 C-11 79 -18 108 -10 138 C-3 161 11 181 31 193 C40 198 50 201 60 203 C62 204 62 204 64 207 C64 208 64 209 64 210 C65 211 65 211 65 214 C66 215 66 217 66 218 C69 231 74 244 79 256 C43 257 6 244 -21 220 C-51 192 -69 154 -71 112 C-71 108 -71 104 -71 100 C-71 99 -71 98 -71 98 C-71 86 -70 76 -68 65 C-67 64 -67 62 -67 61 C-61 38 -50 16 -30 1 C-22 -4 -9 -4 0 0 Z " transform="translate(177.625,600)" style="fill: #F0973E;"/>
  <path d="M0 0 C1 1 2 2 3 3 C4 3 5 4 5 4 C8 7 10 9 13 12 C13 12 14 13 14 13 C16 15 17 16 19 18 C20 19 21 20 22 21 C25 24 27 26 30 29 C29 32 27 34 25 37 C24 37 23 38 22 39 C22 40 21 40 20 41 C20 42 20 42 18 44 C15 46 13 48 11 51 C8 53 6 56 3 58 C-1 62 -6 67 -10 71 C-16 77 -22 84 -29 90 C-39 100 -49 110 -59 120 C-69 130 -79 140 -89 150 C-89 150 -90 151 -90 152 C-93 155 -96 158 -100 161 C-121 182 -141 203 -162 223 C-163 224 -164 225 -165 226 C-167 228 -168 229 -170 231 C-171 232 -173 234 -174 235 C-175 236 -176 237 -178 239 C-179 240 -181 242 -183 244 C-185 246 -185 246 -187 246 C-187 245 -187 244 -188 243 C-190 230 -195 220 -204 210 C-205 209 -205 209 -205 207 C-206 207 -206 207 -207 207 C-207 206 -207 206 -207 205 C-206 204 -206 204 -203 202 C-199 198 -195 195 -192 191 C-191 190 -190 189 -189 189 C-187 186 -185 184 -183 182 C-181 180 -179 179 -178 177 C-174 173 -170 169 -165 164 C-161 160 -157 156 -153 152 C-146 145 -139 138 -132 131 C-132 131 -131 130 -130 129 C-130 129 -130 129 -129 128 C-128 127 -128 127 -127 126 C-126 125 -125 124 -125 124 C-122 121 -119 118 -116 116 C-110 110 -104 105 -99 99 C-97 98 -96 96 -95 95 C-92 92 -89 90 -87 87 C-84 84 -80 81 -77 78 C-72 72 -66 66 -60 60 C-54 54 -47 47 -40 41 C-27 27 -13 14 0 0 Z " transform="translate(735,493)" style="fill: #FED849;"/>
  <path d="M0 0 C12 5 21 17 30 26 C31 26 31 27 32 28 C35 31 38 34 41 37 C44 40 48 43 51 46 C53 49 56 51 58 54 C59 55 61 56 62 57 C79 75 79 75 79 86 C79 99 72 107 64 115 C63 116 62 116 62 117 C60 119 58 121 56 123 C55 124 53 125 52 127 C49 130 45 133 42 136 C36 131 31 126 26 121 C25 120 24 119 23 118 C21 116 18 113 16 111 C13 108 11 106 8 103 C3 98 -2 93 -7 88 C-12 83 -18 77 -23 72 C-35 60 -46 49 -58 37 C-57 36 -56 35 -55 34 C-54 33 -54 33 -53 32 C-51 29 -48 26 -46 24 C-45 23 -44 23 -44 22 C-43 21 -41 20 -40 18 C-39 17 -38 16 -37 15 C-35 13 -33 11 -31 9 C-31 9 -30 8 -30 8 C-21 -1 -11 -3 0 0 Z " transform="translate(851.7734375,398.8125)" style="fill: #F76D44;"/>
  <path d="M0 0 C5 2 10 3 14 5 C29 12 44 15 60 12 C60 13 60 14 60 15 C58 28 57 42 65 53 C66 54 67 56 68 57 C69 58 69 58 70 59 C82 71 101 75 116 81 C114 83 112 84 109 85 C108 85 107 86 106 86 C105 86 105 86 102 87 C101 88 100 88 99 88 C96 90 93 91 89 92 C87 92 85 93 84 94 C75 97 66 100 57 103 C56 103 56 103 54 104 C49 106 44 107 39 109 C38 110 36 110 35 111 C33 111 31 112 30 112 C29 113 27 113 26 113 C24 114 24 114 21 113 C20 110 19 108 17 105 C14 97 9 89 3 82 C2 81 2 80 1 79 C-5 72 -13 66 -22 61 C-21 57 -21 53 -19 49 C-19 49 -19 49 -18 46 C-17 45 -17 44 -17 43 C-16 42 -16 41 -15 39 C-14 36 -13 33 -12 30 C-11 28 -10 25 -9 23 C-7 17 -5 12 -3 7 C-3 6 -2 5 -2 4 C-1 2 -1 2 0 0 Z " transform="translate(426,800)" style="fill: #F9D29A;"/>
  <path d="M0 0 C21 11 47 28 60 49 C59 52 57 54 54 56 C53 56 53 57 52 57 C51 58 50 59 49 59 C41 65 33 71 25 77 C24 78 24 78 23 78 C10 90 -4 102 -14 116 C-17 119 -19 121 -23 122 C-25 121 -25 121 -27 120 C-28 116 -29 113 -30 110 C-30 109 -30 108 -31 108 C-33 98 -34 87 -35 77 C-35 77 -35 77 -35 75 C-36 68 -36 62 -36 55 C-36 54 -36 53 -36 52 C-36 50 -36 48 -36 46 C-36 43 -36 39 -36 36 C-36 6 -36 6 -29 -3 C-20 -10 -9 -4 0 0 Z " transform="translate(318.0625,137.91796875)" style="fill: #D8762A;"/>
  <path d="M0 0 C5 3 7 8 8 13 C10 24 9 34 9 45 C9 46 9 47 9 48 C9 114 9 114 -2 124 C-6 124 -8 124 -11 121 C-12 120 -13 119 -14 118 C-25 104 -38 91 -52 80 C-53 80 -54 79 -55 78 C-63 71 -72 65 -81 59 C-83 57 -85 56 -87 54 C-81 42 -68 32 -58 24 C-57 24 -55 23 -54 22 C-16 -8 -16 -8 0 0 Z " transform="translate(734.8125,134.5)" style="fill: #D8762A;"/>
  <path d="M0 0 C3 3 4 5 4 9 C3 19 -2 26 -9 33 C-11 34 -11 34 -13 35 C-15 37 -15 37 -16 39 C-16 46 -15 50 -11 55 C-5 61 -0 62 8 61 C14 61 17 58 21 54 C22 52 24 50 25 48 C28 45 29 44 33 44 C37 44 39 44 43 46 C45 48 47 50 47 54 C46 63 42 68 36 74 C23 85 9 87 -7 85 C-14 84 -21 80 -26 76 C-28 75 -28 75 -30 76 C-31 76 -31 77 -32 77 C-41 82 -49 85 -59 86 C-59 86 -59 86 -61 86 C-74 87 -85 82 -95 74 C-100 68 -105 63 -106 55 C-105 50 -104 48 -100 45 C-97 43 -93 44 -89 44 C-85 46 -82 49 -80 52 C-76 57 -74 60 -69 61 C-62 62 -56 62 -50 58 C-45 54 -43 50 -42 44 C-41 41 -41 39 -42 37 C-44 35 -46 33 -49 32 C-54 28 -59 22 -61 15 C-62 10 -62 6 -60 2 C-49 -10 -13 -8 0 0 Z " transform="translate(542,386)" style="fill: #1D1817;"/>
  <path d="M0 0 C1 2 2 4 2 5 C3 6 3 6 4 8 C7 17 8 24 8 33 C8 34 8 35 8 36 C8 53 1 66 -10 78 C-19 87 -31 92 -43 95 C-44 95 -45 95 -46 96 C-63 100 -82 99 -99 97 C-94 91 -88 85 -83 80 C-81 78 -80 76 -78 75 C-77 74 -76 73 -75 72 C-74 71 -74 71 -72 69 C-70 67 -68 65 -65 63 C-60 58 -55 53 -49 47 C-47 45 -45 43 -43 41 C-38 36 -32 30 -27 25 C-24 21 -20 18 -17 15 C-15 13 -14 12 -13 11 C-11 9 -9 7 -8 5 C-7 5 -7 5 -6 4 C-2 0 -2 0 0 0 Z " transform="translate(660,807)" style="fill: #FAAE50;"/>
  <path d="M0 0 C4 3 7 6 10 9 C14 15 19 19 24 24 C26 26 28 28 29 29 C33 33 36 36 40 40 C44 44 48 48 52 52 C54 54 56 56 57 57 C62 62 67 67 71 72 C74 75 77 78 79 80 C80 81 81 82 81 82 C83 84 85 86 86 88 C88 89 89 90 90 91 C93 94 96 97 99 100 C95 105 91 109 86 114 C86 115 85 115 84 116 C83 117 81 119 80 120 C73 114 67 108 60 101 C59 100 58 99 57 98 C54 95 51 93 49 90 C46 87 42 84 39 80 C37 78 34 75 32 73 C30 71 29 70 28 69 C22 63 17 58 12 52 C9 49 6 46 3 43 C2 42 1 41 1 41 C-1 39 -3 37 -5 34 C-7 33 -8 32 -10 30 C-13 27 -17 23 -20 20 C-13 13 -7 7 0 0 Z " transform="translate(775,454)" style="fill: #DDD9D6;"/>
  <path d="M0 0 C7 5 12 11 15 20 C17 35 13 49 5 62 C-2 72 -12 79 -24 81 C-31 82 -38 80 -44 76 C-50 71 -54 64 -55 56 C-55 53 -55 50 -55 48 C-55 47 -55 47 -55 45 C-55 41 -55 38 -53 34 C-48 35 -43 37 -38 40 C-33 42 -30 43 -25 42 C-22 40 -21 38 -19 35 C-19 30 -19 27 -22 22 C-25 20 -25 20 -28 19 C-29 18 -30 18 -31 17 C-35 16 -39 14 -43 13 C-42 7 -38 4 -33 1 C-22 -5 -12 -6 0 0 Z " transform="translate(804,660)" style="fill: #F9AE51;"/>
  <path d="M0 0 C9 5 15 13 18 23 C21 35 19 45 14 56 C10 63 4 67 -3 70 C-12 71 -19 70 -27 65 C-34 59 -39 50 -40 41 C-41 29 -39 19 -32 8 C-24 -1 -11 -3 0 0 Z " transform="translate(403.7421875,332.8359375)" style="fill: #1D1917;"/>
  <path d="M0 0 C8 5 13 13 16 22 C16 22 16 22 17 25 C17 35 18 45 13 54 C12 55 11 56 11 57 C5 64 -0 68 -9 70 C-17 70 -24 68 -30 63 C-37 56 -41 48 -42 38 C-42 26 -40 16 -31 7 C-23 -2 -11 -5 0 0 Z " transform="translate(643.4375,333.4375)" style="fill: #1D1917;"/>
  <path d="M0 0 C11 0 22 0 33 0 C33 15 33 15 33 22 C33 26 33 31 33 35 C33 50 33 64 32 79 C32 79 32 79 31 82 C30 91 28 99 21 105 C18 106 16 106 13 106 C8 104 7 102 5 97 C3 93 3 90 2 86 C2 85 2 84 2 83 C2 81 1 78 1 76 C1 75 1 75 1 74 C-0 66 -0 58 -0 51 C-0 49 -0 48 -0 46 C-0 42 -0 39 -0 35 C-0 30 -0 26 -0 21 C-0 14 -0 7 0 0 Z " transform="translate(497,164)" style="fill: #D87529;"/>
  <path d="M0 0 C0 11 -0 22 -1 33 C-1 35 -1 38 -1 41 C-3 78 -3 78 -10 88 C-14 91 -16 91 -20 91 C-30 85 -33 73 -36 62 C-39 49 -39 36 -39 23 C-39 23 -39 22 -39 21 C-39 8 -39 8 -38 6 C-35 5 -35 5 -32 5 C-31 4 -31 4 -28 4 C-28 4 -27 3 -26 3 C-24 3 -22 3 -21 2 C-4 -1 -4 -1 0 0 Z " transform="translate(475,166)" style="fill: #D8762A;"/>
  <path d="M0 0 C1 0 2 0 2 1 C4 1 6 1 8 2 C10 5 9 8 9 12 C9 12 9 13 9 14 C9 16 9 17 9 19 C9 21 9 24 9 26 C9 46 9 67 -4 84 C-7 87 -9 87 -12 87 C-16 86 -18 85 -20 81 C-23 74 -24 68 -25 61 C-25 60 -25 60 -25 59 C-28 38 -27 18 -27 -3 C-18 -5 -8 -2 0 0 Z " transform="translate(580.75,170)" style="fill: #D9762A;"/>
  <path d="M0 0 C4 2 6 4 9 7 C9 7 10 7 10 8 C12 9 13 11 15 12 C16 14 17 15 18 16 C21 18 23 21 26 24 C29 27 32 30 34 32 C40 38 46 43 51 49 C51 50 50 50 50 51 C49 51 49 51 48 51 C47 49 46 48 45 46 C44 44 42 43 41 41 C40 41 40 41 38 39 C37 38 36 37 35 36 C34 35 33 34 32 33 C30 31 27 28 25 26 C22 23 20 21 17 18 C12 13 7 8 2 3 C-2 5 -5 8 -8 11 C-9 12 -10 12 -10 13 C-12 15 -15 17 -17 19 C-18 21 -20 23 -21 24 C-25 28 -30 32 -34 37 C-38 41 -42 45 -47 50 C-55 58 -63 66 -71 74 C-81 84 -90 93 -99 102 C-119 121 -138 141 -157 160 C-158 160 -158 159 -159 159 C-107 107 -54 54 0 0 Z M-160 160 C-160 163 -160 163 -161 165 C-162 165 -163 166 -163 167 C-164 167 -165 168 -165 169 C-166 170 -167 170 -168 171 C-168 172 -168 172 -170 174 C-173 176 -175 179 -178 181 C-180 183 -181 185 -183 186 C-187 191 -192 195 -196 199 C-197 199 -197 198 -198 198 C-185 185 -173 173 -160 160 Z M-199 199 C-199 202 -199 202 -200 204 C-201 204 -201 205 -202 205 C-202 205 -202 205 -204 207 C-204 207 -205 208 -206 209 C-206 209 -207 210 -207 211 C-209 212 -210 214 -212 215 C-213 215 -213 214 -214 214 C-209 209 -204 204 -199 199 Z " transform="translate(784,543)" style="fill: #FCF65A;"/>
  <path d="M0 0 C0 3 0 3 -1 5 C-2 5 -2 6 -3 6 C-4 7 -4 8 -5 8 C-6 9 -6 10 -7 11 C-8 11 -9 12 -9 13 C-12 15 -14 17 -16 20 C-18 21 -20 23 -21 24 C-25 28 -29 32 -33 36 C-27 36 -27 36 4 37 C4 37 4 38 4 38 C-2 39 -8 39 -14 39 C-15 39 -16 39 -17 39 C-24 39 -31 39 -38 38 C-33 32 -27 26 -22 21 C-20 19 -19 17 -17 16 C-11 10 -6 5 0 0 Z " transform="translate(599,866)" style="fill: #F1C65D;"/>
  <path d="M0 0 C1 0 2 1 3 1 C-12 16 -26 30 -41 45 C-42 44 -42 44 -43 43 C-36 36 -29 29 -22 22 C-21 21 -20 20 -19 19 C-17 17 -17 17 -14 16 C-14 15 -13 15 -13 14 C-12 11 -9 9 -7 7 C-6 6 -6 5 -5 5 C-3 3 -3 3 -1 3 C-1 2 -0 1 0 0 Z M-45 46 C-45 46 -45 46 -43 47 C-43 47 -43 47 -45 48 C-45 47 -45 47 -45 46 Z " transform="translate(568,758)" style="fill: #ECD64E;"/>
</svg>