<?xml version="1.0" encoding="utf-8"?>
<svg version="1.1" viewBox="0 0 48 48" width="48.0pt" height="48.0pt" xmlns="http://www.w3.org/2000/svg" xmlns:bx="https://boxy-svg.com">
  <defs>
    <bx:export>
      <bx:file format="png"/>
    </bx:export>
  </defs>
  <g style="" transform="matrix(0.754408, 0, 0, 0.754408, 9.961346, 3.240935)">
    <path d="M 26.98 4.29 C 37.16 5.81 44.94 15.73 44.1 26 C 43.57 32.56 39.83 38.84 34.02 42.03 C 27.28 46.26 19.57 45.53 12.93 41.6 C 14.32 41.22 15.06 39.69 16.94 40.12 C 18.44 40.34 17.99 43.26 19.8 42.93 C 20.37 38.47 22.69 34.1 26.16 31.17 C 28.29 28.81 31.667 27.804 34.596 26.034 C 37.281 24.411 39.99 23.17 40.68 20.32 C 38.39 19.47 35.86 20.82 34.81 18.01 C 34.18 16.09 35.85 14.76 35.79 13.15 C 34.58 12.75 33.36 13.73 32.59 14.57 C 30.62 17.19 29.61 20.2 28.25 23.11 C 26.76 26.08 23.67 25.27 21.02 24.71 C 18.91 24.55 17.17 23.53 15 23.58 C 12.82 23.45 12.07 24.76 13.9 26.15 C 16.05 27.96 17.98 29.94 17.23 33.02 C 16.42 36.68 13.087 37.897 10.859 40.184 C 10.203 39.654 10.232 39.663 9.319 38.777 C 3.572 33.076 2.25 24.4 4.88 16.93 C 7.97 8.32 17.8 2.48 26.98 4.29 Z" style="fill: rgb(235, 219, 112);"/>
    <path d="M 15.338 9.597 C 20.825 6.545 26.522 7.222 30.145 9.015 C 25.435 9.79 20.734 10.636 15.874 14.236 C 9.782 18.749 8.791 21.446 7.462 24.802 C 6.466 19.279 9.908 12.617 15.338 9.597 Z" fill="#fefefd"/>
    <path d="M 35.79 13.15 C 35.85 14.76 34.18 16.09 34.81 18.01 C 35.86 20.82 38.39 19.47 40.68 20.32 C 39.99 23.17 35.995 25.488 33.52 26.874 C 31.018 28.203 28.29 28.81 26.16 31.17 C 22.69 34.1 20.37 38.47 19.8 42.93 C 17.99 43.26 18.44 40.34 16.94 40.12 C 15.078 39.708 14.284 41.028 12.877 41.758 C 11.807 42.313 10.42 43.19 9.24 42.81 C 9.08 42.1 9.38 41.47 10.14 40.9 C 12.21 38.5 16.42 36.68 17.23 33.02 C 17.98 29.94 16.05 27.96 13.9 26.15 C 12.07 24.76 12.82 23.45 15 23.58 C 17.17 23.53 18.91 24.55 21.02 24.71 C 23.67 25.27 26.76 26.08 28.25 23.11 C 29.61 20.2 30.62 17.19 32.59 14.57 C 33.36 13.73 34.58 12.75 35.79 13.15 Z" fill="#040502"/>
  </g>
  <g transform="matrix(-0.95327, 0, 0, -1.106357, -34.22987, -2.326125)" style="transform-origin: 43.6225px 23.165px; opacity: 0.9;">
    <path d="M 40.944 21.131 C 42.019 21.289 42.839 22.339 42.751 23.419 C 42.695 24.111 42.3 24.776 41.687 25.111 C 40.976 25.558 40.162 25.481 39.462 25.065 C 39.608 25.025 39.687 24.862 39.885 24.912 C 40.043 24.934 39.996 25.242 40.187 25.206 C 40.247 24.735 40.492 24.274 40.858 23.966 C 41.083 23.718 41.439 23.609 41.748 23.424 C 42.031 23.252 42.317 23.121 42.39 22.822 C 42.148 22.732 41.881 22.872 41.77 22.578 C 41.704 22.375 41.88 22.234 41.874 22.063 C 41.746 22.022 41.618 22.126 41.536 22.212 C 41.328 22.488 41.222 22.809 41.078 23.116 C 40.921 23.428 40.595 23.342 40.315 23.284 C 40.093 23.266 39.909 23.157 39.68 23.166 C 39.45 23.152 39.371 23.288 39.564 23.437 C 39.791 23.627 39.995 23.835 39.915 24.161 C 39.83 24.545 39.478 24.676 39.243 24.916 C 39.174 24.862 39.177 24.862 39.081 24.767 C 38.474 24.165 38.335 23.252 38.612 22.465 C 38.938 21.556 39.976 20.937 40.944 21.131 Z" style="fill: rgb(235, 219, 112); stroke-width: 1;"/>
    <path d="M 39.716 21.687 C 40.295 21.366 40.896 21.439 41.278 21.629 C 40.781 21.71 40.285 21.8 39.773 22.18 C 39.13 22.655 39.025 22.94 38.885 23.293 C 38.78 22.709 39.143 22.008 39.716 21.687 Z" fill="#fefefd" style="stroke-width: 1;"/>
    <path d="M 41.874 22.063 C 41.88 22.234 41.704 22.375 41.77 22.578 C 41.881 22.872 42.148 22.732 42.39 22.822 C 42.317 23.121 41.896 23.365 41.634 23.51 C 41.37 23.654 41.083 23.718 40.858 23.966 C 40.492 24.274 40.247 24.735 40.187 25.206 C 39.996 25.242 40.043 24.934 39.885 24.912 C 39.688 24.866 39.605 25.007 39.456 25.083 C 39.343 25.142 39.197 25.233 39.073 25.192 C 39.055 25.12 39.087 25.052 39.168 24.993 C 39.386 24.74 39.83 24.545 39.915 24.161 C 39.995 23.835 39.791 23.627 39.564 23.437 C 39.371 23.288 39.45 23.152 39.68 23.166 C 39.909 23.157 40.093 23.266 40.315 23.284 C 40.595 23.342 40.921 23.428 41.078 23.116 C 41.222 22.809 41.328 22.488 41.536 22.212 C 41.618 22.126 41.746 22.022 41.874 22.063 Z" fill="#040502" style="stroke-width: 1;"/>
    <path d="M 38.225 30.637 L 43.616 38.112 L 49.02 30.637" fill="#EFE2C2" style="stroke-width: 0.586;"/>
    <path d="M 38.225 17.351 L 38.225 30.637 L 49.02 30.637 L 49.02 17.351 L 43.623 17.351 L 38.225 17.351 Z" fill="#F7BE29" style="stroke-width: 0.586;"/>
    <path d="M 38.225 8.212 L 49.02 8.212 L 49.02 14.022 L 38.225 14.022 L 38.225 8.212 Z" fill="#F07067" style="stroke-width: 0.586;"/>
    <path d="M 50.269 16.396 C 50.269 16.926 49.898 17.346 49.441 17.346 L 37.817 17.346 C 37.36 17.346 36.989 16.917 36.989 16.396 L 36.989 14.977 C 36.989 14.452 37.36 14.022 37.817 14.022 L 49.441 14.022 C 49.898 14.022 50.269 14.452 50.269 14.977 L 50.269 16.396 Z" fill="#EFE2C2" style="stroke-width: 0.586;"/>
    <path d="M 49.855 13.258 L 49.855 8.212 C 49.855 7.755 49.484 7.384 49.026 7.384 L 38.225 7.384 C 37.767 7.384 37.397 7.755 37.397 8.212 L 37.397 13.258 C 36.679 13.457 36.154 14.149 36.154 14.977 L 36.154 16.396 C 36.154 17.229 36.686 17.911 37.397 18.119 L 37.397 30.637 C 37.397 30.917 37.551 31.12 37.551 31.125 L 42.943 38.6 C 43.097 38.816 43.35 38.946 43.616 38.946 C 43.882 38.946 44.136 38.816 44.291 38.6 L 49.694 31.125 C 49.694 31.12 49.849 30.958 49.849 30.637 L 49.849 18.119 C 50.566 17.92 51.091 17.229 51.091 16.396 L 51.091 14.977 C 51.098 14.149 50.566 13.457 49.855 13.258 Z M 44.259 35.806 C 44.055 35.732 43.845 35.688 43.635 35.688 C 43.388 35.688 43.171 35.737 42.986 35.812 L 39.851 31.464 L 47.4 31.464 L 44.259 35.806 Z M 42.38 29.8 L 42.38 18.178 L 44.872 18.178 L 44.872 29.8 L 42.38 29.8 Z M 41.545 29.8 L 39.054 29.8 L 39.054 18.178 L 41.545 18.178 L 41.545 29.8 Z M 48.192 29.8 L 45.7 29.8 L 45.7 18.178 L 48.192 18.178 L 48.192 29.8 Z M 37.842 16.514 C 37.829 16.496 37.811 16.46 37.811 16.396 L 37.811 14.977 C 37.811 14.913 37.829 14.877 37.842 14.859 L 49.404 14.859 C 49.416 14.877 49.434 14.913 49.434 14.977 L 49.434 16.396 C 49.434 16.46 49.416 16.496 49.404 16.514 L 37.842 16.514 Z M 39.06 9.039 L 48.198 9.039 L 48.198 13.195 L 39.06 13.195 L 39.06 9.039 Z" fill="#211F1E" style="stroke-width: 0.586;"/>
  </g>
</svg>