<svg style="overflow:visible" version="1.1" viewBox="0 0 48 48" width="48.0pt" height="48.0pt" xmlns="http://www.w3.org/2000/svg">
  <path d="M 26.98 4.29 C 37.16 5.81 44.94 15.73 44.1 26 C 43.57 32.56 39.83 38.84 34.02 42.03 C 27.28 46.26 19.57 45.53 12.93 41.6 C 14.32 41.22 15.06 39.69 16.94 40.12 C 18.44 40.34 17.99 43.26 19.8 42.93 C 20.37 38.47 22.69 34.1 26.16 31.17 C 28.29 28.81 31.667 27.804 34.596 26.034 C 37.281 24.411 39.99 23.17 40.68 20.32 C 38.39 19.47 35.86 20.82 34.81 18.01 C 34.18 16.09 35.85 14.76 35.79 13.15 C 34.58 12.75 33.36 13.73 32.59 14.57 C 30.62 17.19 29.61 20.2 28.25 23.11 C 26.76 26.08 23.67 25.27 21.02 24.71 C 18.91 24.55 17.17 23.53 15 23.58 C 12.82 23.45 12.07 24.76 13.9 26.15 C 16.05 27.96 17.98 29.94 17.23 33.02 C 16.42 36.68 13.087 37.897 10.859 40.184 C 10.203 39.654 10.232 39.663 9.319 38.777 C 3.572 33.076 2.25 24.4 4.88 16.93 C 7.97 8.32 17.8 2.48 26.98 4.29 Z" style="fill: rgb(235, 219, 112);"/>
  <path d="M 15.338 9.597 C 20.825 6.545 26.522 7.222 30.145 9.015 C 25.435 9.79 20.734 10.636 15.874 14.236 C 9.782 18.749 8.791 21.446 7.462 24.802 C 6.466 19.279 9.908 12.617 15.338 9.597 Z" fill="#fefefd"/>
  <path d="M 35.79 13.15 C 35.85 14.76 34.18 16.09 34.81 18.01 C 35.86 20.82 38.39 19.47 40.68 20.32 C 39.99 23.17 35.995 25.488 33.52 26.874 C 31.018 28.203 28.29 28.81 26.16 31.17 C 22.69 34.1 20.37 38.47 19.8 42.93 C 17.99 43.26 18.44 40.34 16.94 40.12 C 15.078 39.708 14.284 41.028 12.877 41.758 C 11.807 42.313 10.42 43.19 9.24 42.81 C 9.08 42.1 9.38 41.47 10.14 40.9 C 12.21 38.5 16.42 36.68 17.23 33.02 C 17.98 29.94 16.05 27.96 13.9 26.15 C 12.07 24.76 12.82 23.45 15 23.58 C 17.17 23.53 18.91 24.55 21.02 24.71 C 23.67 25.27 26.76 26.08 28.25 23.11 C 29.61 20.2 30.62 17.19 32.59 14.57 C 33.36 13.73 34.58 12.75 35.79 13.15 Z" fill="#040502"/>
  <g transform="translate(23 18) rotate(135) scale(0.75)">
    <g fill="none" >
      <path fill="#FF822D" d="m16.635 7.585l4.51 2.535l2.561 4.537L9.37 28.993l-4.862-2.57l-2.21-4.5z"/>
      <path fill="#FFCE7C" d="m1.39 28.065l.582 1.312l1.255.525l6.13-.925l-7.042-7.042z"/>
      <path fill="#402A32" d="m1.063 30.229l.326-2.164l1.838 1.837z"/>
      <path fill="#F92F60" d="M22.276 1.944a2 2 0 0 1 2.829 0l4.242 4.243a2 2 0 0 1 0 2.828l-3.535 3.536l-4.527-2.264L18.74 5.48z"/>
      <path fill="#D3D3D3" d="m18.74 5.48l7.072 7.071l-2.122 2.121l-7.07-7.07z"/>
    </g>
  </g>
</svg>